<?xml version="1.0" encoding="utf-8"?>
<!-- Generator: Adobe Illustrator 25.0.0, SVG Export Plug-In . SVG Version: 6.00 Build 0)  -->
<svg version="1.1" id="Layer_1" xmlns="http://www.w3.org/2000/svg" xmlns:xlink="http://www.w3.org/1999/xlink" x="0px" y="0px"
	 width="1087px" height="189px" viewBox="0 0 1087 189" style="enable-background:new 0 0 1087 189;" xml:space="preserve">
<style type="text/css">
	.st0{opacity:0.95;fill:#E5E5E5;enable-background:new    ;}
</style>
<path class="st0" d="M1059.2,25.8H27.8C12.5,25.8,0,38.3,0,53.5V138c0,15.3,12.5,27.8,27.8,27.8h492.4l23.3,23.3l23.3-23.3h492.4
	c15.3,0,27.8-12.5,27.8-27.8V53.5C1087,38.3,1074.5,25.8,1059.2,25.8z"/>
<g>
	<path d="M763.4,57.8h1.2c4.3,3.5,8,7.5,11.8,11.5c0.1,0.8,0.1,1.6,0.2,2.4c-0.8,0.3-1.6,0.6-2.5,1c-2.9-2.3-5-5.3-7.8-7.7
		c-0.1,12,0.1,24-0.1,36c-0.1,2.6-4.4,2.6-4.6,0c-0.2-12-0.1-24,0-36c-2.8,2.3-4.9,5.4-7.8,7.7c-0.8-0.3-1.7-0.6-2.5-0.9
		c0-0.8,0.1-1.6,0.1-2.5C755.4,65.4,759.3,61.5,763.4,57.8z"/>
	<path d="M773.4,77.9c4.3,0.2,8.7-0.5,12.8,0.9c3.4,1.3,4.8,5.1,4.8,8.5c0.3,9.1,0,18.1,0.1,27.2c-0.1,3.1,0.1,6.6-1.9,9.3
		c-1.7,2.5-4.9,2.9-7.7,3.4h-34.8c-2.7-0.4-5.8-0.7-7.8-2.8c-2.4-2.7-2.2-6.5-2.3-9.8c0.1-9.1-0.1-18.1,0.1-27.2
		c-0.1-3.4,1.4-7.3,4.9-8.5c4.1-1.3,8.5-0.7,12.7-0.9c0.1,1.7,0.1,3.4,0.2,5.1c-4.1,0.3-8.6-1-12.2,1.5c-0.4,2-0.6,4.1-0.6,6.2
		c0.1,8.5,0,17,0,25.5c0.1,1.6,0,3.5,1.3,4.6c1.2,1.2,3,1,4.5,1.1c10.8,0,21.6,0,32.4,0c1.5-0.1,3.4,0,4.5-1.2
		c1.5-1.3,1.2-3.6,1.3-5.4c-0.1-9.1,0-18.1,0-27.2c0.1-1.6-0.7-3.1-1.3-4.5c-3.7-1.2-7.5-0.7-11.3-0.7
		C773.3,81.4,773.4,79.7,773.4,77.9z"/>
</g>
<g>
	<g>
		<path d="M965.1,66.8c4.9-1,10-0.8,15-0.8c7.7,0.1,15.4-0.2,23.1,0.4c3.6,0.3,7.4,1.5,9.7,4.4c3.1,3.5,3.2,8.5,3.3,12.9
			c-0.1,9.5,0.1,19-0.2,28.5c-0.1,4.8-1.7,10.1-6.1,12.6c-4.9,2.6-10.7,2.1-16.1,2.2c-8.9-0.2-17.9,0.4-26.8-0.5
			c-5.4-0.4-10.4-4.5-11.2-10c-1-6.7-0.5-13.4-0.6-20.1c0.2-6.7-0.4-13.5,0.8-20.1C956.8,71.6,960.5,67.8,965.1,66.8z M967.7,72.2
			c-2.5,0.3-4.9,1.7-5.8,4.1c-1.1,3.2-1.1,6.6-1.1,10c0,8-0.1,16,0,24c0.1,3.7,0.5,8.4,4.5,9.9c6.5,1.9,13.5,0.8,20.2,1.1
			c6.7-0.3,13.6,0.8,20.2-0.9c4.1-1.4,4.9-6.3,4.7-10.1c-0.2-10.7,0.5-21.5-0.2-32.2c-0.9-5.9-7.7-6.5-12.5-6.5
			C987.7,72,977.6,71.1,967.7,72.2z"/>
	</g>
	<path d="M982.9,83c1-2.2,4.2-2.4,5.4-0.3c0.4,3.6,0,7.3,0.2,10.9c3.6,0.1,7.3,0.1,10.9,0.1c1.9,1.5,1.9,4.1,0,5.6
		c-3.6,0-7.3,0-10.9,0c-0.2,3.5,0.3,7.1-0.4,10.6c-1.4,2.1-4.2,1.4-5.3-0.6c0.1-3.4,0.1-6.7,0-10c-3.6,0-7.2-0.1-10.8,0
		c-1.9-1.5-1.9-4.1,0-5.6c3.6,0.1,7.2,0.1,10.8,0C982.9,90.1,982.7,86.6,982.9,83z"/>
</g>
<circle class="st0" cx="1049" cy="25.7" r="23"/>
<g>
	<g>
		<path d="M1044.8,0.5c12.4-2.6,25.6,5.9,29,18c4.2,12.6-4,27.2-16.5,31.2c-11.3,4.3-24.7-1.6-30.2-12.1c-3.4-6-4.2-13.4-1.8-19.9
			C1028.2,8.9,1035.9,2.3,1044.8,0.5z M1044.8,4.7c-6.7,1.3-12.3,6.3-15,12.5c-2.7,6.6-2.1,14.5,2,20.4c3.1,4.1,7.3,7.6,12.5,8.6
			c7.3,1.8,15.5-0.3,20.6-6c7.9-7.7,7.8-21.7,0-29.4C1059.9,5.3,1052,3.1,1044.8,4.7z"/>
	</g>
	<path d="M1057.5,15.3c0.6,0,1.3,0.1,1.9,0.3c0,0.8,0.6,1.7,0,2.4c-2.2,2.7-4.9,4.9-7.2,7.5c2.2,2.7,5,4.8,7.2,7.5
		c0.9,1-0.1,3-1.5,2.7c-0.9,0.1-1.5-0.7-2.1-1.2c-2.1-2.1-4.2-4.3-6.3-6.3c-2.6,2.3-4.7,5-7.4,7.2c-1.4,0.9-3.3-0.4-2.7-2.1
		c2.2-2.8,5.2-5.1,7.4-7.9c-2.4-2.7-5.3-4.9-7.4-7.9c-0.4-1.3,1-2,1.8-2.6c2.7,2.1,4.9,4.9,7.4,7.2c0.6,0.6,1.7,0.2,2.2-0.4
		C1053.1,19.8,1055,17.3,1057.5,15.3z"/>
</g>
<g>
	<path d="M66.2,117.2V84.4H55v-5.4h28.8v5.4H72.5v32.8H66.2z"/>
	<path d="M103.9,88.6c2,1.1,3.5,2.6,4.6,4.6c1.1,2,1.7,4.4,1.7,7.2v3.8c0,2.9-0.6,5.3-1.7,7.3c-1.1,2-2.7,3.5-4.6,4.6
		c-2,1-4.3,1.6-6.8,1.6c-2.6,0-4.9-0.5-6.9-1.6c-2-1-3.5-2.6-4.6-4.6c-1.1-2-1.7-4.4-1.7-7.3v-3.8c0-2.7,0.6-5.1,1.7-7.1
		s2.7-3.6,4.7-4.7c2-1.1,4.3-1.7,6.9-1.7S101.9,87.6,103.9,88.6z M93.3,93.2c-1,0.8-1.8,1.8-2.4,3.1c-0.5,1.3-0.8,2.8-0.8,4.4v3.3
		c0,1.7,0.3,3.1,0.8,4.4c0.5,1.3,1.3,2.3,2.3,3.1c1,0.7,2.3,1.1,3.9,1.1c1.5,0,2.8-0.4,3.8-1.1c1-0.7,1.8-1.8,2.3-3.1
		c0.5-1.3,0.8-2.8,0.8-4.4v-3.3c0-1.7-0.3-3.1-0.8-4.4c-0.5-1.3-1.3-2.3-2.3-3.1c-1-0.8-2.3-1.1-3.7-1.1
		C95.6,92.1,94.3,92.4,93.3,93.2z"/>
	<path d="M129.9,115.2c-1.8-1.6-2.7-3.8-2.7-6.6c0-2.6,0.9-4.7,2.7-6.4c1.8-1.6,4.4-2.4,7.8-2.4h7.5V97c0-1.7-0.5-3-1.5-3.8
		s-2.4-1.2-4.1-1.2c-1.1,0-2,0.1-2.8,0.4c-0.7,0.3-1.3,0.7-1.7,1.2c-0.4,0.5-0.7,1.1-0.9,1.8h-5.9c0.1-1.2,0.4-2.4,0.9-3.4
		c0.5-1,1.2-1.9,2.2-2.6c0.9-0.7,2.1-1.3,3.5-1.7c1.4-0.4,3-0.6,4.9-0.6c2.1,0,4,0.3,5.8,1c1.8,0.6,3.2,1.7,4.2,3.2
		c1,1.5,1.6,3.4,1.6,5.9v20.1h-5.9v-3.8h-0.3c-0.4,0.7-1,1.4-1.7,2.1c-0.7,0.7-1.6,1.2-2.7,1.6c-1.1,0.4-2.4,0.6-3.8,0.6
		C134,117.7,131.7,116.8,129.9,115.2z M142,112.1c1-0.5,1.7-1.2,2.3-2c0.6-0.8,0.9-1.8,0.9-2.9V104h-6.5c-1.8,0-3.1,0.4-4,1.2
		c-0.8,0.8-1.2,1.8-1.2,3.1c0,1.6,0.5,2.7,1.6,3.4c1.1,0.7,2.3,1.1,3.7,1.1C140,112.8,141.1,112.6,142,112.1z"/>
	<path d="M173.2,87.7c1.1,0.4,2.1,0.9,2.9,1.7s1.4,1.6,1.8,2.6h0.3V76.9h6.2v40.3h-6.1v-4.7h-0.3c-0.2,0.8-0.6,1.5-1.1,2.1
		c-0.5,0.6-1.2,1.2-2,1.6c-0.8,0.4-1.7,0.8-2.6,1.1c-1,0.3-2,0.4-3.1,0.4c-2.3,0-4.3-0.5-5.9-1.5c-1.7-1-3-2.5-3.9-4.4
		c-0.9-1.9-1.4-4.2-1.4-6.8v-5.1c0-2.6,0.5-4.9,1.4-6.8c0.9-1.9,2.3-3.3,4-4.4s3.7-1.5,5.9-1.5C170.8,87.2,172.1,87.4,173.2,87.7z
		 M167.5,93.3c-1,0.7-1.8,1.6-2.3,2.9c-0.6,1.3-0.8,2.8-0.8,4.6v3.3c0,1.8,0.3,3.3,0.8,4.6c0.6,1.3,1.3,2.2,2.4,2.9s2.3,1,3.7,1
		c1.4,0,2.6-0.3,3.7-1c1-0.7,1.8-1.6,2.4-2.8c0.6-1.2,0.9-2.7,0.9-4.3v-4.5c0-1.5-0.3-2.9-0.9-4c-0.6-1.1-1.5-2-2.5-2.7
		c-1.1-0.6-2.3-1-3.7-1C169.7,92.3,168.5,92.6,167.5,93.3z"/>
	<path d="M206.5,87.7c1.1,0.4,2.1,0.9,2.9,1.7s1.4,1.6,1.8,2.6h0.3V76.9h6.2v40.3h-6.1v-4.7h-0.3c-0.2,0.8-0.6,1.5-1.1,2.1
		c-0.5,0.6-1.2,1.2-2,1.6c-0.8,0.4-1.7,0.8-2.6,1.1c-1,0.3-2,0.4-3.1,0.4c-2.3,0-4.3-0.5-5.9-1.5c-1.7-1-3-2.5-3.9-4.4
		c-0.9-1.9-1.4-4.2-1.4-6.8v-5.1c0-2.6,0.5-4.9,1.4-6.8c0.9-1.9,2.3-3.3,4-4.4s3.7-1.5,5.9-1.5C204.1,87.2,205.4,87.4,206.5,87.7z
		 M200.9,93.3c-1,0.7-1.8,1.6-2.3,2.9c-0.6,1.3-0.8,2.8-0.8,4.6v3.3c0,1.8,0.3,3.3,0.8,4.6c0.6,1.3,1.3,2.2,2.4,2.9s2.3,1,3.7,1
		c1.4,0,2.6-0.3,3.7-1c1-0.7,1.8-1.6,2.4-2.8c0.6-1.2,0.9-2.7,0.9-4.3v-4.5c0-1.5-0.3-2.9-0.9-4c-0.6-1.1-1.5-2-2.5-2.7
		c-1.1-0.6-2.3-1-3.7-1C203.1,92.3,201.9,92.6,200.9,93.3z"/>
	<path d="M256.5,88.6c2,1.1,3.5,2.6,4.6,4.6c1.1,2,1.7,4.4,1.7,7.2v3.8c0,2.9-0.6,5.3-1.7,7.3c-1.1,2-2.7,3.5-4.6,4.6
		c-2,1-4.3,1.6-6.8,1.6c-2.6,0-4.9-0.5-6.9-1.6c-2-1-3.5-2.6-4.6-4.6c-1.1-2-1.7-4.4-1.7-7.3v-3.8c0-2.7,0.6-5.1,1.7-7.1
		s2.7-3.6,4.7-4.7c2-1.1,4.3-1.7,6.9-1.7S254.5,87.6,256.5,88.6z M245.9,93.2c-1,0.8-1.8,1.8-2.4,3.1c-0.5,1.3-0.8,2.8-0.8,4.4v3.3
		c0,1.7,0.3,3.1,0.8,4.4c0.5,1.3,1.3,2.3,2.3,3.1c1,0.7,2.3,1.1,3.9,1.1c1.5,0,2.8-0.4,3.8-1.1c1-0.7,1.8-1.8,2.3-3.1
		c0.5-1.3,0.8-2.8,0.8-4.4v-3.3c0-1.7-0.3-3.1-0.8-4.4c-0.5-1.3-1.3-2.3-2.3-3.1c-1-0.8-2.3-1.1-3.7-1.1
		C248.2,92.1,246.9,92.4,245.9,93.2z"/>
	<path d="M294.7,117.2h-6.1v-4.9h-0.3c-0.3,0.8-0.8,1.6-1.5,2.4c-0.7,0.8-1.7,1.5-2.9,2.1s-2.7,0.9-4.4,0.9c-2,0-3.7-0.3-5.2-1
		c-1.5-0.7-2.7-1.7-3.5-3.1c-0.9-1.4-1.3-3.3-1.3-5.6V87.6h6.2v18.7c0,1.6,0.3,2.8,0.8,3.7c0.6,0.9,1.3,1.5,2.2,1.9
		c0.9,0.4,1.9,0.5,2.9,0.5c1.3,0,2.5-0.3,3.5-0.9c1-0.6,1.9-1.4,2.5-2.4c0.6-1,0.9-2.1,0.9-3.3V87.6h6.2V117.2z"/>
	<path d="M303.3,87.6h6.2v4.6h0.3c0.2-0.7,0.6-1.4,1.2-2.2c0.6-0.8,1.4-1.4,2.5-2c1.1-0.6,2.4-0.9,4.1-0.9c0.4,0,0.8,0,1.1,0
		c0.3,0,0.7,0.1,1,0.1v5.5c-0.3-0.1-0.7-0.1-1.2-0.2c-0.5,0-1-0.1-1.5-0.1c-1.7,0-3,0.3-4.2,0.9c-1.1,0.6-1.9,1.4-2.5,2.5
		c-0.5,1.1-0.8,2.2-0.8,3.6v17.6h-6.3V87.6z"/>
	<path d="M337.8,115.2c-1.8-1.6-2.7-3.8-2.7-6.6c0-2.6,0.9-4.7,2.7-6.4c1.8-1.6,4.4-2.4,7.8-2.4h7.5V97c0-1.7-0.5-3-1.5-3.8
		s-2.4-1.2-4.1-1.2c-1.1,0-2,0.1-2.8,0.4c-0.7,0.3-1.3,0.7-1.7,1.2c-0.4,0.5-0.7,1.1-0.9,1.8h-5.9c0.1-1.2,0.4-2.4,0.9-3.4
		c0.5-1,1.2-1.9,2.2-2.6c0.9-0.7,2.1-1.3,3.5-1.7c1.4-0.4,3-0.6,4.9-0.6c2.1,0,4,0.3,5.8,1c1.8,0.6,3.2,1.7,4.2,3.2
		c1,1.5,1.6,3.4,1.6,5.9v20.1h-5.9v-3.8h-0.3c-0.4,0.7-1,1.4-1.7,2.1c-0.7,0.7-1.6,1.2-2.7,1.6c-1.1,0.4-2.4,0.6-3.8,0.6
		C341.9,117.7,339.6,116.8,337.8,115.2z M349.9,112.1c1-0.5,1.7-1.2,2.3-2c0.6-0.8,0.9-1.8,0.9-2.9V104h-6.5c-1.8,0-3.1,0.4-4,1.2
		c-0.8,0.8-1.2,1.8-1.2,3.1c0,1.6,0.5,2.7,1.6,3.4c1.1,0.7,2.3,1.1,3.7,1.1C347.9,112.8,349,112.6,349.9,112.1z"/>
	<path d="M378.6,117c-1.1-0.4-2.1-0.9-2.9-1.7c-0.8-0.7-1.4-1.6-1.9-2.7h-0.3V127h-6.2V87.6h6.1v4.7h0.3c0.3-0.8,0.7-1.5,1.3-2.1
		s1.2-1.2,2-1.6s1.6-0.8,2.5-1c0.9-0.2,1.9-0.3,3-0.3c2.3,0,4.3,0.5,6,1.6c1.7,1,2.9,2.5,3.8,4.5c0.9,1.9,1.3,4.2,1.3,6.9v4.6
		c0,2.7-0.5,5-1.4,6.9c-0.9,1.9-2.2,3.4-3.9,4.5c-1.7,1-3.7,1.6-6,1.6C381,117.6,379.8,117.4,378.6,117z M384.2,111.5
		c1-0.7,1.8-1.7,2.3-3c0.5-1.3,0.8-2.9,0.8-4.7V101c0-1.9-0.3-3.4-0.8-4.7c-0.5-1.3-1.3-2.3-2.3-3c-1-0.7-2.3-1-3.7-1
		c-1.4,0-2.6,0.3-3.7,1c-1,0.6-1.8,1.6-2.4,2.8s-0.8,2.7-0.8,4.3v4.5c0,1.5,0.3,2.8,0.9,4c0.6,1.2,1.4,2.1,2.5,2.7
		c1.1,0.6,2.3,1,3.7,1C382,112.5,383.2,112.2,384.2,111.5z"/>
	<path d="M411.9,117c-1.1-0.4-2.1-0.9-2.9-1.7c-0.8-0.7-1.4-1.6-1.9-2.7h-0.3V127h-6.2V87.6h6.1v4.7h0.3c0.3-0.8,0.7-1.5,1.3-2.1
		s1.2-1.2,2-1.6s1.6-0.8,2.5-1c0.9-0.2,1.9-0.3,3-0.3c2.3,0,4.3,0.5,6,1.6c1.7,1,2.9,2.5,3.8,4.5c0.9,1.9,1.3,4.2,1.3,6.9v4.6
		c0,2.7-0.5,5-1.4,6.9c-0.9,1.9-2.2,3.4-3.9,4.5c-1.7,1-3.7,1.6-6,1.6C414.2,117.6,413,117.4,411.9,117z M417.5,111.5
		c1-0.7,1.8-1.7,2.3-3c0.5-1.3,0.8-2.9,0.8-4.7V101c0-1.9-0.3-3.4-0.8-4.7c-0.5-1.3-1.3-2.3-2.3-3c-1-0.7-2.3-1-3.7-1
		c-1.4,0-2.6,0.3-3.7,1c-1,0.6-1.8,1.6-2.4,2.8s-0.8,2.7-0.8,4.3v4.5c0,1.5,0.3,2.8,0.9,4c0.6,1.2,1.4,2.1,2.5,2.7
		c1.1,0.6,2.3,1,3.7,1C415.3,112.5,416.5,112.2,417.5,111.5z"/>
	<path d="M431.7,127.3l2.3-16.7h6.8l-3.8,16.7H431.7z"/>
	<path d="M470.1,117c-1.1-0.4-2.1-0.9-2.9-1.7c-0.8-0.7-1.4-1.6-1.9-2.7h-0.3V127h-6.2V87.6h6.1v4.7h0.3c0.3-0.8,0.7-1.5,1.3-2.1
		s1.2-1.2,2-1.6s1.6-0.8,2.5-1c0.9-0.2,1.9-0.3,3-0.3c2.3,0,4.3,0.5,6,1.6c1.7,1,2.9,2.5,3.8,4.5c0.9,1.9,1.3,4.2,1.3,6.9v4.6
		c0,2.7-0.5,5-1.4,6.9c-0.9,1.9-2.2,3.4-3.9,4.5c-1.7,1-3.7,1.6-6,1.6C472.5,117.6,471.3,117.4,470.1,117z M475.7,111.5
		c1-0.7,1.8-1.7,2.3-3c0.5-1.3,0.8-2.9,0.8-4.7V101c0-1.9-0.3-3.4-0.8-4.7c-0.5-1.3-1.3-2.3-2.3-3c-1-0.7-2.3-1-3.7-1
		c-1.4,0-2.6,0.3-3.7,1c-1,0.6-1.8,1.6-2.4,2.8s-0.8,2.7-0.8,4.3v4.5c0,1.5,0.3,2.8,0.9,4c0.6,1.2,1.4,2.1,2.5,2.7
		c1.1,0.6,2.3,1,3.7,1C473.5,112.5,474.7,112.2,475.7,111.5z"/>
	<path d="M492.2,76.9h6.2v40.3h-6.2V76.9z"/>
	<path d="M511.6,116.1c-2-1.1-3.5-2.6-4.5-4.6s-1.6-4.4-1.6-7.2v-4c0-2.8,0.6-5.2,1.7-7.2c1.1-2,2.6-3.5,4.6-4.6
		c1.9-1.1,4.1-1.6,6.5-1.6c2.5,0,4.7,0.5,6.6,1.6c1.9,1.1,3.4,2.6,4.5,4.6c1.1,2,1.6,4.3,1.6,7.1v3.5h-19.2v1.5
		c0,2.1,0.6,3.9,1.8,5.3c1.2,1.4,2.9,2.1,5.1,2.1c1.1,0,2-0.2,2.9-0.5s1.5-0.7,2-1.2c0.5-0.5,0.8-1.1,1-1.7h6.1
		c-0.1,0.9-0.4,1.8-0.9,2.7c-0.5,1-1.3,1.9-2.2,2.7c-1,0.9-2.2,1.5-3.6,2.1c-1.5,0.5-3.2,0.8-5.2,0.8
		C515.9,117.7,513.6,117.2,511.6,116.1z M524.8,99.8c0-0.1,0-0.1,0-0.2s0-0.1,0-0.2c0-1.5-0.3-2.8-0.8-3.9c-0.5-1.1-1.3-2-2.3-2.6
		c-1-0.6-2.1-0.9-3.5-0.9c-1.3,0-2.5,0.3-3.5,0.9c-1,0.6-1.8,1.5-2.3,2.6c-0.5,1.1-0.8,2.4-0.8,3.9c0,0.1,0,0.1,0,0.2s0,0.1,0,0.2
		H524.8z"/>
	<path d="M538.7,115.2c-1.8-1.6-2.7-3.8-2.7-6.6c0-2.6,0.9-4.7,2.7-6.4c1.8-1.6,4.4-2.4,7.8-2.4h7.5V97c0-1.7-0.5-3-1.5-3.8
		s-2.4-1.2-4.1-1.2c-1.1,0-2,0.1-2.8,0.4c-0.7,0.3-1.3,0.7-1.7,1.2c-0.4,0.5-0.7,1.1-0.9,1.8h-5.9c0.1-1.2,0.4-2.4,0.9-3.4
		c0.5-1,1.2-1.9,2.2-2.6c0.9-0.7,2.1-1.3,3.5-1.7c1.4-0.4,3-0.6,4.9-0.6c2.1,0,4,0.3,5.8,1s3.2,1.7,4.2,3.2s1.6,3.4,1.6,5.9v20.1
		h-5.9v-3.8H554c-0.4,0.7-1,1.4-1.7,2.1c-0.7,0.7-1.6,1.2-2.7,1.6c-1.1,0.4-2.4,0.6-3.8,0.6C542.9,117.7,540.5,116.8,538.7,115.2z
		 M550.8,112.1c1-0.5,1.7-1.2,2.3-2s0.9-1.8,0.9-2.9V104h-6.5c-1.8,0-3.1,0.4-4,1.2c-0.8,0.8-1.2,1.8-1.2,3.1c0,1.6,0.5,2.7,1.6,3.4
		c1.1,0.7,2.3,1.1,3.7,1.1C548.8,112.8,549.9,112.6,550.8,112.1z"/>
	<path d="M568.6,90.9c1.1-1.3,2.5-2.3,4.2-2.9c1.7-0.6,3.6-0.9,5.6-0.9c2.2,0,4.1,0.3,5.7,1c1.6,0.7,2.9,1.7,3.8,2.9
		s1.4,2.8,1.4,4.5h-5.6c-0.1-0.7-0.3-1.3-0.7-1.9c-0.4-0.6-1-1.1-1.8-1.5s-1.8-0.6-3-0.6c-1.6,0-2.9,0.4-3.9,1.1
		c-1,0.7-1.5,1.7-1.5,3c0,0.8,0.2,1.5,0.7,2s1.1,0.9,1.8,1.2c0.7,0.3,1.5,0.5,2.4,0.7c0.9,0.2,1.7,0.3,2.6,0.4
		c1.9,0.3,3.5,0.8,5,1.3c1.5,0.6,2.6,1.4,3.5,2.5c0.9,1.1,1.3,2.6,1.3,4.5c0,2-0.5,3.7-1.5,5.1s-2.4,2.5-4.2,3.2
		c-1.8,0.7-4,1.1-6.5,1.1c-2.3,0-4.4-0.3-6.1-1c-1.7-0.7-3.1-1.7-4-2.9c-0.9-1.3-1.4-2.8-1.4-4.5h6.1c0.1,0.8,0.4,1.5,0.8,2.1
		c0.4,0.6,1.1,1.1,1.9,1.4c0.8,0.3,1.9,0.5,3.1,0.5c1.4,0,2.5-0.2,3.4-0.6c0.9-0.4,1.5-0.9,1.9-1.5c0.4-0.6,0.6-1.3,0.6-2.1
		c0-1-0.3-1.8-1-2.3c-0.7-0.5-1.6-0.9-2.7-1.2s-2.3-0.5-3.7-0.8c-1.8-0.4-3.4-0.8-4.9-1.4c-1.5-0.6-2.7-1.4-3.6-2.5
		s-1.3-2.6-1.3-4.5C567,94,567.5,92.3,568.6,90.9z"/>
	<path d="M601.6,116.1c-2-1.1-3.5-2.6-4.5-4.6c-1.1-2-1.6-4.4-1.6-7.2v-4c0-2.8,0.6-5.2,1.7-7.2c1.1-2,2.6-3.5,4.6-4.6
		c1.9-1.1,4.1-1.6,6.5-1.6c2.5,0,4.7,0.5,6.6,1.6c1.9,1.1,3.4,2.6,4.5,4.6c1.1,2,1.6,4.3,1.6,7.1v3.5h-19.2v1.5
		c0,2.1,0.6,3.9,1.8,5.3c1.2,1.4,2.9,2.1,5.1,2.1c1.1,0,2-0.2,2.9-0.5s1.5-0.7,2-1.2c0.5-0.5,0.8-1.1,1-1.7h6.1
		c-0.1,0.9-0.4,1.8-0.9,2.7c-0.5,1-1.3,1.9-2.2,2.7s-2.2,1.5-3.6,2.1s-3.2,0.8-5.2,0.8C605.8,117.7,603.5,117.2,601.6,116.1z
		 M614.7,99.8c0-0.1,0-0.1,0-0.2s0-0.1,0-0.2c0-1.5-0.3-2.8-0.8-3.9c-0.5-1.1-1.3-2-2.3-2.6s-2.1-0.9-3.5-0.9
		c-1.3,0-2.5,0.3-3.5,0.9s-1.8,1.5-2.3,2.6c-0.5,1.1-0.8,2.4-0.8,3.9c0,0.1,0,0.1,0,0.2s0,0.1,0,0.2H614.7z"/>
	<path d="M641.2,80.3h6.1v7.4h6.6v4.9h-6.6v15.7c0,1.6,0.3,2.7,1,3.3c0.7,0.6,1.9,0.9,3.5,0.9c0.4,0,0.9,0,1.4,0
		c0.5,0,0.8-0.1,1.1-0.1v4.8c-0.2,0-0.8,0.1-1.6,0.2c-0.9,0.1-1.6,0.1-2.3,0.1c-2.4,0-4.3-0.3-5.6-0.9s-2.3-1.5-2.8-2.8
		c-0.5-1.3-0.8-2.9-0.8-4.8V92.6h-4.5v-4.9h4.6V80.3z"/>
	<path d="M661.6,115.2c-1.8-1.6-2.7-3.8-2.7-6.6c0-2.6,0.9-4.7,2.7-6.4c1.8-1.6,4.4-2.4,7.8-2.4h7.5V97c0-1.7-0.5-3-1.5-3.8
		S673,92,671.3,92c-1.1,0-2,0.1-2.8,0.4c-0.7,0.3-1.3,0.7-1.7,1.2c-0.4,0.5-0.7,1.1-0.9,1.8H660c0.1-1.2,0.4-2.4,0.9-3.4
		c0.5-1,1.2-1.9,2.2-2.6c0.9-0.7,2.1-1.3,3.5-1.7c1.4-0.4,3-0.6,4.9-0.6c2.1,0,4,0.3,5.8,1s3.2,1.7,4.2,3.2s1.6,3.4,1.6,5.9v20.1
		h-5.9v-3.8h-0.3c-0.4,0.7-1,1.4-1.7,2.1s-1.6,1.2-2.7,1.6c-1.1,0.4-2.4,0.6-3.8,0.6C665.8,117.7,663.4,116.8,661.6,115.2z
		 M673.8,112.1c1-0.5,1.7-1.2,2.3-2s0.9-1.8,0.9-2.9V104h-6.5c-1.8,0-3.1,0.4-4,1.2c-0.8,0.8-1.2,1.8-1.2,3.1c0,1.6,0.5,2.7,1.6,3.4
		c1.1,0.7,2.3,1.1,3.7,1.1C671.7,112.8,672.8,112.6,673.8,112.1z"/>
	<path d="M702.5,117c-1.1-0.4-2.1-0.9-2.9-1.7s-1.4-1.6-1.9-2.7h-0.3V127h-6.2V87.6h6.1v4.7h0.3c0.3-0.8,0.7-1.5,1.3-2.1
		c0.6-0.6,1.2-1.2,2-1.6c0.8-0.4,1.6-0.8,2.5-1c0.9-0.2,1.9-0.3,3-0.3c2.3,0,4.3,0.5,6,1.6c1.7,1,2.9,2.5,3.8,4.5
		c0.9,1.9,1.3,4.2,1.3,6.9v4.6c0,2.7-0.5,5-1.4,6.9c-0.9,1.9-2.2,3.4-3.9,4.5c-1.7,1-3.7,1.6-6,1.6
		C704.8,117.6,703.6,117.4,702.5,117z M708.1,111.5c1-0.7,1.8-1.7,2.3-3c0.5-1.3,0.8-2.9,0.8-4.7V101c0-1.9-0.3-3.4-0.8-4.7
		c-0.5-1.3-1.3-2.3-2.3-3c-1-0.7-2.3-1-3.7-1c-1.4,0-2.6,0.3-3.7,1c-1,0.6-1.8,1.6-2.4,2.8c-0.6,1.2-0.8,2.7-0.8,4.3v4.5
		c0,1.5,0.3,2.8,0.9,4c0.6,1.2,1.4,2.1,2.5,2.7c1.1,0.6,2.3,1,3.7,1C705.9,112.5,707.1,112.2,708.1,111.5z"/>
	<path d="M794.7,127.3l2.3-16.7h6.8l-3.8,16.7H794.7z"/>
	<path d="M821.7,80.3h6.1v7.4h6.6v4.9h-6.6v15.7c0,1.6,0.3,2.7,1,3.3c0.7,0.6,1.9,0.9,3.5,0.9c0.4,0,0.9,0,1.4,0
		c0.5,0,0.8-0.1,1.1-0.1v4.8c-0.2,0-0.8,0.1-1.6,0.2c-0.9,0.1-1.6,0.1-2.3,0.1c-2.4,0-4.3-0.3-5.6-0.9s-2.3-1.5-2.8-2.8
		c-0.5-1.3-0.8-2.9-0.8-4.8V92.6h-4.5v-4.9h4.6V80.3z"/>
	<path d="M841.2,76.9h6.2v16h0.3c0.2-0.7,0.7-1.5,1.3-2.4c0.7-0.9,1.6-1.7,2.8-2.4c1.2-0.7,2.9-1,4.8-1c2.9,0,5.2,0.8,7.1,2.5
		c1.9,1.7,2.8,4.2,2.8,7.6v20h-6.2V99c0-1.5-0.3-2.7-0.8-3.7c-0.5-1-1.2-1.7-2.1-2.2c-0.9-0.5-1.9-0.7-3.1-0.7
		c-1.5,0-2.7,0.4-3.8,1.1c-1,0.7-1.8,1.7-2.4,3c-0.5,1.3-0.8,2.7-0.8,4.3v16.5h-6.2V76.9z"/>
	<path d="M879.4,116.1c-2-1.1-3.5-2.6-4.5-4.6c-1.1-2-1.6-4.4-1.6-7.2v-4c0-2.8,0.6-5.2,1.7-7.2c1.1-2,2.6-3.5,4.6-4.6
		c1.9-1.1,4.1-1.6,6.5-1.6c2.5,0,4.7,0.5,6.6,1.6c1.9,1.1,3.4,2.6,4.5,4.6c1.1,2,1.6,4.3,1.6,7.1v3.5h-19.2v1.5
		c0,2.1,0.6,3.9,1.8,5.3c1.2,1.4,2.9,2.1,5.1,2.1c1.1,0,2-0.2,2.9-0.5s1.5-0.7,2-1.2c0.5-0.5,0.8-1.1,1-1.7h6.1
		c-0.1,0.9-0.4,1.8-0.9,2.7c-0.5,1-1.3,1.9-2.2,2.7s-2.2,1.5-3.6,2.1s-3.2,0.8-5.2,0.8C883.6,117.7,881.3,117.2,879.4,116.1z
		 M892.5,99.8c0-0.1,0-0.1,0-0.2s0-0.1,0-0.2c0-1.5-0.3-2.8-0.8-3.9c-0.5-1.1-1.3-2-2.3-2.6S887.3,92,886,92c-1.3,0-2.5,0.3-3.5,0.9
		s-1.8,1.5-2.3,2.6c-0.5,1.1-0.8,2.4-0.8,3.9c0,0.1,0,0.1,0,0.2s0,0.1,0,0.2H892.5z"/>
	<path d="M905.3,87.6h6.1v5.3h0.3c0.3-0.8,0.7-1.6,1.3-2.5c0.6-0.9,1.5-1.7,2.8-2.3c1.2-0.6,2.8-1,4.8-1c3,0,5.4,0.8,7.2,2.5
		c1.8,1.7,2.8,4.2,2.8,7.6v20h-6.2V99c0-1.5-0.2-2.8-0.7-3.7c-0.5-1-1.2-1.7-2.1-2.2c-0.9-0.5-1.9-0.7-3.1-0.7
		c-1.5,0-2.8,0.4-3.8,1.1c-1,0.7-1.8,1.7-2.4,3s-0.8,2.7-0.8,4.3v16.5h-6.2V87.6z"/>
	<path d="M1021.5,110.2c0.9-0.8,1.9-1.2,3.1-1.2c1.3,0,2.3,0.4,3.2,1.2c0.9,0.8,1.3,1.9,1.3,3.2c0,1.3-0.4,2.3-1.3,3.1
		c-0.9,0.8-1.9,1.2-3.2,1.2c-1.2,0-2.3-0.4-3.1-1.2c-0.9-0.8-1.3-1.9-1.3-3.1C1020.2,112.1,1020.7,111,1021.5,110.2z"/>
</g>
</svg>
